<svg width="1024" height="1024" viewBox="0 0 1024 1024" fill="none" xmlns="http://www.w3.org/2000/svg">
<rect width="1024" height="1024" fill="#D9D9D9" style="fill:#D9D9D9;fill:color(display-p3 0.8510 0.8510 0.8510);fill-opacity:1;"/>
<rect width="1024" height="1024" fill="url(#paint0_linear_4310_3621)"/>
<g filter="url(#filter0_di_4310_3621)">
<path d="M227.555 725.325C274.679 725.325 312.881 763.537 312.889 810.659C312.889 857.788 274.684 895.993 227.555 895.993C180.427 895.993 142.222 857.788 142.222 810.659C142.23 763.537 180.432 725.325 227.555 725.325ZM372.639 671.297C400.41 643.533 445.426 643.528 473.194 671.297L576.5 774.603C604.268 802.372 604.264 847.388 576.5 875.159C548.729 902.93 503.715 902.93 475.944 875.159L372.639 771.853C344.868 744.082 344.868 699.068 372.639 671.297ZM344.389 180.377C462.946 113.993 614.537 124.809 721.444 231.71C835.306 345.576 850.032 529.605 765.639 661.63L875.944 775.409C903.273 803.603 902.576 848.6 874.389 875.937C846.195 903.279 801.175 902.575 773.833 874.382L620.111 715.908L571.361 665.63L620.889 616.102C696.131 540.852 696.133 407.515 620.889 332.267C562.26 273.644 480.981 266.903 413.861 304.489C351.896 339.197 314.257 423.939 340.333 494.851C353.892 531.71 334.997 572.598 298.139 586.157C261.284 599.713 220.422 580.815 206.861 543.963C153.822 399.763 228.839 245.086 344.389 180.377Z" fill="url(#paint1_linear_4310_3621)" shape-rendering="crispEdges"/>
<path d="M227.555 732.437C270.413 732.437 305.223 766.918 305.771 809.65L305.778 810.66C305.777 853.861 270.756 888.882 227.555 888.882C184.355 888.882 149.334 853.861 149.333 810.66C149.34 767.463 184.36 732.437 227.555 732.437ZM347.863 186.58C463.856 121.632 611.929 132.258 716.416 236.738C827.809 348.136 842.326 528.457 759.647 657.8L756.617 662.54L760.533 666.58L870.838 780.359C895.241 805.534 894.815 845.597 870.028 870.253L869.438 870.832C844.066 895.438 803.547 894.806 778.938 869.431H778.937L625.215 710.957L581.34 665.706L625.917 621.13C703.936 543.103 703.939 405.264 625.917 327.238H625.917C565.361 266.689 481.416 259.363 412.023 297.378L410.386 298.284C345.706 334.514 306.249 422.767 333.659 497.306H333.66C345.767 530.22 329.12 566.706 296.458 579.193L295.684 579.484C262.776 591.587 226.316 574.94 213.826 542.281L213.535 541.507C161.851 400.992 234.972 249.801 347.863 186.58ZM377.667 676.326C402.661 651.338 443.175 651.335 468.166 676.325L571.471 779.632C596.462 804.623 596.459 845.136 571.471 870.131C546.478 895.125 505.967 895.125 480.973 870.131L377.667 766.825C352.674 741.832 352.674 701.32 377.667 676.326Z" stroke="url(#paint2_linear_4310_3621)" stroke-width="14.2222" shape-rendering="crispEdges"/>
</g>
<path opacity="0.5" d="M729.528 629.151C741.782 626.999 754.371 627.57 766.389 630.79L781.056 634.707C776.334 643.875 771.23 652.877 765.639 661.624L875.944 775.401C880.197 779.789 883.686 784.636 886.583 789.707L777.361 733.013C766.136 727.185 753.751 723.913 741.111 723.457L697.806 721.901C685.418 721.456 673.274 718.321 662.222 712.707L573.111 667.429L571.361 665.624L581.889 655.068L729.528 629.151Z" fill="url(#paint3_linear_4310_3621)"/>
<path opacity="0.7" d="M817.75 438.846C821.535 477.131 819.167 515.989 810.611 553.541L760.5 569.152C748.281 572.952 737.062 579.462 727.694 588.18L696.139 617.541C687.065 625.983 676.255 632.363 664.472 636.207L572.028 666.318L571.361 665.624L620.889 616.096C650.287 586.694 668.131 548.415 674.555 508.207C676.389 506.948 678.261 505.74 680.194 504.624L774.305 450.291C788.1 442.33 803.067 438.69 817.75 438.846Z" fill="url(#paint4_linear_4310_3621)"/>
<path opacity="0.8" d="M722.028 232.319C748.021 258.448 768.764 288.265 784.361 320.263L747.417 376.458C741.023 386.178 736.683 397.11 734.667 408.569L726.889 452.791C724.74 464.999 719.945 476.591 712.861 486.763L652.722 573.124C686.881 510.006 685.384 428.798 648.194 367.291L689.25 270.263C696.252 253.714 707.948 240.828 722.028 232.319Z" fill="url(#paint5_linear_4310_3621)"/>
<path opacity="0.5" d="M372.639 671.301C400.41 643.538 445.426 643.533 473.194 671.301L576.5 774.606C579.168 777.275 581.512 780.15 583.667 783.106C581.224 782.729 578.728 782.113 576.25 781.023L517.528 755.19C507.644 750.842 497.013 748.411 486.222 748.023L440.083 746.357C427.695 745.911 415.525 742.777 404.472 737.162L352.694 710.857C354.891 696.383 361.493 682.449 372.639 671.301Z" fill="url(#paint6_linear_4310_3621)"/>
<defs>
<filter id="filter0_di_4310_3621" x="85.3333" y="110.514" width="867.549" height="870.813" filterUnits="userSpaceOnUse" color-interpolation-filters="sRGB">
<feFlood flood-opacity="0" result="BackgroundImageFix"/>
<feColorMatrix in="SourceAlpha" type="matrix" values="0 0 0 0 0 0 0 0 0 0 0 0 0 0 0 0 0 0 127 0" result="hardAlpha"/>
<feOffset dy="28.4444"/>
<feGaussianBlur stdDeviation="28.4444"/>
<feComposite in2="hardAlpha" operator="out"/>
<feColorMatrix type="matrix" values="0 0 0 0 0.82 0 0 0 0 0.369872 0 0 0 0 0.167489 0 0 0 0.51 0"/>
<feBlend mode="normal" in2="BackgroundImageFix" result="effect1_dropShadow_4310_3621"/>
<feBlend mode="normal" in="SourceGraphic" in2="effect1_dropShadow_4310_3621" result="shape"/>
<feColorMatrix in="SourceAlpha" type="matrix" values="0 0 0 0 0 0 0 0 0 0 0 0 0 0 0 0 0 0 127 0" result="hardAlpha"/>
<feOffset/>
<feGaussianBlur stdDeviation="56.8889"/>
<feComposite in2="hardAlpha" operator="arithmetic" k2="-1" k3="1"/>
<feColorMatrix type="matrix" values="0 0 0 0 1 0 0 0 0 1 0 0 0 0 1 0 0 0 1 0"/>
<feBlend mode="normal" in2="shape" result="effect2_innerShadow_4310_3621"/>
</filter>
<linearGradient id="paint0_linear_4310_3621" x1="512" y1="0" x2="512" y2="1024" gradientUnits="userSpaceOnUse">
<stop stop-color="#EB9838" style="stop-color:#EB9838;stop-color:color(display-p3 0.9216 0.5947 0.2212);stop-opacity:1;"/>
<stop offset="1" stop-color="#EB5C20" style="stop-color:#EB5C20;stop-color:color(display-p3 0.9216 0.3608 0.1255);stop-opacity:1;"/>
</linearGradient>
<linearGradient id="paint1_linear_4310_3621" x1="354.422" y1="138.958" x2="512.084" y2="897.458" gradientUnits="userSpaceOnUse">
<stop offset="0.25" stop-color="white" stop-opacity="0.9" style="stop-color:white;stop-opacity:0.9;"/>
<stop offset="0.953561" stop-color="white" stop-opacity="0.4" style="stop-color:white;stop-opacity:0.4;"/>
</linearGradient>
<linearGradient id="paint2_linear_4310_3621" x1="553.407" y1="298.194" x2="608.99" y2="951.819" gradientUnits="userSpaceOnUse">
<stop offset="0.00651159" stop-color="white" style="stop-color:white;stop-opacity:1;"/>
<stop offset="0.65" stop-color="white" stop-opacity="0" style="stop-color:none;stop-opacity:0;"/>
<stop offset="1" stop-color="white" style="stop-color:white;stop-opacity:1;"/>
</linearGradient>
<linearGradient id="paint3_linear_4310_3621" x1="600.198" y1="621.55" x2="586.927" y2="689.636" gradientUnits="userSpaceOnUse">
<stop stop-color="white" stop-opacity="0" style="stop-color:none;stop-opacity:0;"/>
<stop offset="1" stop-color="white" style="stop-color:white;stop-opacity:1;"/>
</linearGradient>
<linearGradient id="paint4_linear_4310_3621" x1="565.488" y1="564.34" x2="602.364" y2="673.394" gradientUnits="userSpaceOnUse">
<stop stop-color="white" stop-opacity="0" style="stop-color:none;stop-opacity:0;"/>
<stop offset="1" stop-color="white" style="stop-color:white;stop-opacity:1;"/>
</linearGradient>
<linearGradient id="paint5_linear_4310_3621" x1="590.578" y1="489.123" x2="685.746" y2="553.898" gradientUnits="userSpaceOnUse">
<stop stop-color="white" stop-opacity="0" style="stop-color:none;stop-opacity:0;"/>
<stop offset="1" stop-color="white" style="stop-color:white;stop-opacity:1;"/>
</linearGradient>
<linearGradient id="paint6_linear_4310_3621" x1="342.462" y1="646.025" x2="329.191" y2="714.112" gradientUnits="userSpaceOnUse">
<stop stop-color="white" stop-opacity="0" style="stop-color:none;stop-opacity:0;"/>
<stop offset="1" stop-color="white" style="stop-color:white;stop-opacity:1;"/>
</linearGradient>
</defs>
</svg>
