<svg width="1024" height="1024" viewBox="0 0 1024 1024" fill="none" xmlns="http://www.w3.org/2000/svg">
<g clip-path="url(#clip0_56_533)">
<rect width="1024" height="1024" fill="#D9D9D9" style="fill:#D9D9D9;fill:color(display-p3 0.8510 0.8510 0.8510);fill-opacity:1;"/>
<rect width="1024" height="1024" fill="url(#paint0_linear_56_533)"/>
<g filter="url(#filter0_di_56_533)">
<mask id="path-2-inside-1_56_533" fill="white">
<path d="M734.988 247.617C765.923 247.617 791 272.696 791 303.63V485.108C791 516.043 765.923 541.12 734.988 541.12H667.773C630.144 541.12 591.07 512.601 554.271 520.46C541.027 523.288 528.251 526.279 516.659 529.385C452.059 546.694 411.238 608.866 411.238 675.745V720.358C411.238 751.293 386.161 776.371 355.227 776.371H288.012C257.077 776.371 232 751.294 232 720.359V538.88C232 507.946 257.077 482.868 288.012 482.868H355.227C392.94 482.868 432.102 511.546 468.989 503.695C482.497 500.82 495.534 497.775 507.342 494.611C571.315 477.47 611.762 415.922 611.762 349.692V303.63C611.762 272.695 636.839 247.617 667.773 247.617H734.988ZM734.387 601.612C765.321 601.613 790.398 626.691 790.398 657.625V719.238C790.398 750.173 765.321 775.25 734.387 775.25H678.374C647.44 775.25 622.362 750.173 622.362 719.238V657.625C622.362 626.691 647.44 601.612 678.374 601.612H734.387ZM344.626 247.62C375.56 247.62 400.638 272.698 400.638 303.633V365.246C400.638 396.18 375.56 421.258 344.626 421.258H288.613C257.679 421.258 232.602 396.18 232.602 365.246V303.633C232.602 272.698 257.679 247.62 288.613 247.62H344.626Z"/>
</mask>
<path d="M734.988 247.617C765.923 247.617 791 272.696 791 303.63V485.108C791 516.043 765.923 541.12 734.988 541.12H667.773C630.144 541.12 591.07 512.601 554.271 520.46C541.027 523.288 528.251 526.279 516.659 529.385C452.059 546.694 411.238 608.866 411.238 675.745V720.358C411.238 751.293 386.161 776.371 355.227 776.371H288.012C257.077 776.371 232 751.294 232 720.359V538.88C232 507.946 257.077 482.868 288.012 482.868H355.227C392.94 482.868 432.102 511.546 468.989 503.695C482.497 500.82 495.534 497.775 507.342 494.611C571.315 477.47 611.762 415.922 611.762 349.692V303.63C611.762 272.695 636.839 247.617 667.773 247.617H734.988ZM734.387 601.612C765.321 601.613 790.398 626.691 790.398 657.625V719.238C790.398 750.173 765.321 775.25 734.387 775.25H678.374C647.44 775.25 622.362 750.173 622.362 719.238V657.625C622.362 626.691 647.44 601.612 678.374 601.612H734.387ZM344.626 247.62C375.56 247.62 400.638 272.698 400.638 303.633V365.246C400.638 396.18 375.56 421.258 344.626 421.258H288.613C257.679 421.258 232.602 396.18 232.602 365.246V303.633C232.602 272.698 257.679 247.62 288.613 247.62H344.626Z" fill="url(#paint1_linear_56_533)" shape-rendering="crispEdges"/>
<path d="M734.988 247.617L734.988 236.415H734.988V247.617ZM791 303.63H802.202V303.63L791 303.63ZM791 485.108H802.202V485.108H791ZM734.988 541.12V552.323H734.988L734.988 541.12ZM667.773 541.12L667.773 552.323H667.773V541.12ZM554.271 520.46L551.931 509.505L551.931 509.505L554.271 520.46ZM516.659 529.385L513.76 518.564V518.564L516.659 529.385ZM411.238 675.745L400.036 675.745V675.745H411.238ZM355.227 776.371V787.573H355.227L355.227 776.371ZM288.012 776.371L288.012 787.573H288.012V776.371ZM232 720.359H220.798V720.359L232 720.359ZM232 538.88L220.798 538.88V538.88H232ZM288.012 482.868V471.666H288.012L288.012 482.868ZM355.227 482.868L355.227 471.666H355.227V482.868ZM468.989 503.695L471.321 514.652H471.321L468.989 503.695ZM507.342 494.611L510.241 505.432H510.241L507.342 494.611ZM611.762 303.63L600.559 303.63V303.63H611.762ZM667.773 247.617V236.415H667.773L667.773 247.617ZM734.387 601.612L734.387 590.41H734.387V601.612ZM790.398 719.238L801.601 719.238V719.238H790.398ZM734.387 775.25V786.452H734.387L734.387 775.25ZM678.374 775.25L678.374 786.452H678.374V775.25ZM622.362 719.238H611.16V719.238L622.362 719.238ZM678.374 601.612V590.41H678.374L678.374 601.612ZM344.626 247.62L344.626 236.418H344.626V247.62ZM400.638 365.246L411.84 365.246V365.246H400.638ZM344.626 421.258V432.46H344.626L344.626 421.258ZM288.613 421.258L288.613 432.46H288.613V421.258ZM232.602 365.246H221.399V365.246L232.602 365.246ZM288.613 247.62V236.418H288.613L288.613 247.62ZM734.988 247.617L734.988 258.82C759.735 258.82 779.797 278.882 779.798 303.63L791 303.63L802.202 303.63C802.202 266.509 772.11 236.415 734.988 236.415L734.988 247.617ZM791 303.63H779.798V485.108H791H802.202V303.63H791ZM791 485.108H779.798C779.798 509.856 759.736 529.918 734.988 529.918L734.988 541.12L734.988 552.323C772.11 552.322 802.202 522.23 802.202 485.108H791ZM734.988 541.12V529.918H667.773V541.12V552.323H734.988V541.12ZM667.773 541.12L667.773 529.918C651.183 529.918 634.137 523.624 614.147 517.181C595.244 511.087 573.603 504.876 551.931 509.505L554.271 520.46L556.61 531.415C571.738 528.185 588.033 532.303 607.274 538.505C625.429 544.357 646.734 552.322 667.773 552.323L667.773 541.12ZM554.271 520.46L551.931 509.505C538.561 512.36 525.589 515.395 513.76 518.564L516.659 529.385L519.559 540.205C530.913 537.163 543.493 534.217 556.61 531.415L554.271 520.46ZM516.659 529.385L513.76 518.564C443.504 537.389 400.036 604.626 400.036 675.745L411.238 675.745L422.441 675.745C422.441 613.107 460.614 555.999 519.559 540.205L516.659 529.385ZM411.238 675.745H400.036V720.358H411.238H422.441V675.745H411.238ZM411.238 720.358H400.036C400.036 745.106 379.974 765.169 355.227 765.169L355.227 776.371L355.227 787.573C392.348 787.573 422.441 757.48 422.441 720.358H411.238ZM355.227 776.371V765.169H288.012V776.371V787.573H355.227V776.371ZM288.012 776.371L288.012 765.169C263.264 765.169 243.203 745.107 243.202 720.359L232 720.359L220.798 720.359C220.798 757.481 250.891 787.573 288.012 787.573L288.012 776.371ZM232 720.359H243.202V538.88H232H220.798V720.359H232ZM232 538.88L243.202 538.88C243.203 514.132 263.264 494.071 288.012 494.071L288.012 482.868L288.012 471.666C250.89 471.666 220.798 501.759 220.798 538.88L232 538.88ZM288.012 482.868V494.071H355.227V482.868V471.666H288.012V482.868ZM355.227 482.868L355.227 494.071C371.85 494.071 388.935 500.399 408.968 506.884C427.911 513.016 449.6 519.275 471.321 514.652L468.989 503.695L466.657 492.738C451.491 495.966 435.156 491.812 415.868 485.568C397.67 479.677 376.317 471.666 355.227 471.666L355.227 482.868ZM468.989 503.695L471.321 514.652C484.957 511.75 498.193 508.66 510.241 505.432L507.342 494.611L504.442 483.791C492.875 486.89 480.037 489.891 466.657 492.738L468.989 503.695ZM507.342 494.611L510.241 505.432C579.866 486.776 622.964 420.167 622.964 349.692H611.762H600.559C600.559 411.678 562.764 468.163 504.442 483.791L507.342 494.611ZM611.762 349.692H622.964V303.63H611.762H600.559V349.692H611.762ZM611.762 303.63L622.964 303.63C622.964 278.882 643.026 258.82 667.773 258.82L667.773 247.617L667.773 236.415C630.652 236.415 600.559 266.509 600.559 303.63L611.762 303.63ZM667.773 247.617V258.82H734.988V247.617V236.415H667.773V247.617ZM734.387 601.612L734.387 612.815C759.134 612.815 779.196 632.877 779.196 657.625H790.398H801.601C801.601 620.504 771.508 590.41 734.387 590.41L734.387 601.612ZM790.398 657.625H779.196V719.238H790.398H801.601V657.625H790.398ZM790.398 719.238L779.196 719.238C779.196 743.986 759.134 764.047 734.387 764.048L734.387 775.25L734.387 786.452C771.508 786.452 801.601 756.36 801.601 719.238L790.398 719.238ZM734.387 775.25V764.048H678.374V775.25V786.452H734.387V775.25ZM678.374 775.25L678.374 764.048C653.627 764.047 633.565 743.986 633.565 719.238L622.362 719.238L611.16 719.238C611.16 756.36 641.253 786.452 678.374 786.452L678.374 775.25ZM622.362 719.238H633.565V657.625H622.362H611.16V719.238H622.362ZM622.362 657.625H633.565C633.565 632.877 653.627 612.815 678.374 612.815L678.374 601.612L678.374 590.41C641.252 590.41 611.16 620.504 611.16 657.625H622.362ZM678.374 601.612V612.815H734.387V601.612V590.41H678.374V601.612ZM344.626 247.62L344.626 258.823C369.373 258.823 389.435 278.885 389.435 303.633H400.638H411.84C411.84 266.512 381.748 236.418 344.626 236.418L344.626 247.62ZM400.638 303.633H389.435V365.246H400.638H411.84V303.633H400.638ZM400.638 365.246L389.435 365.246C389.435 389.993 369.373 410.055 344.626 410.055L344.626 421.258L344.626 432.46C381.747 432.46 411.84 402.367 411.84 365.246L400.638 365.246ZM344.626 421.258V410.055H288.613V421.258V432.46H344.626V421.258ZM288.613 421.258L288.613 410.055C263.866 410.055 243.804 389.993 243.804 365.246L232.602 365.246L221.399 365.246C221.399 402.367 251.492 432.46 288.613 432.46L288.613 421.258ZM232.602 365.246H243.804V303.633H232.602H221.399V365.246H232.602ZM232.602 303.633H243.804C243.804 278.885 263.866 258.823 288.613 258.823L288.613 247.62L288.613 236.418C251.492 236.418 221.399 266.512 221.399 303.633H232.602ZM288.613 247.62V258.823H344.626V247.62V236.418H288.613V247.62Z" fill="url(#paint2_linear_56_533)" mask="url(#path-2-inside-1_56_533)"/>
</g>
</g>
<defs>
<filter id="filter0_di_56_533" x="176.512" y="219.873" width="669.977" height="639.735" filterUnits="userSpaceOnUse" color-interpolation-filters="sRGB">
<feFlood flood-opacity="0" result="BackgroundImageFix"/>
<feColorMatrix in="SourceAlpha" type="matrix" values="0 0 0 0 0 0 0 0 0 0 0 0 0 0 0 0 0 0 127 0" result="hardAlpha"/>
<feOffset dy="27.7442"/>
<feGaussianBlur stdDeviation="27.7442"/>
<feComposite in2="hardAlpha" operator="out"/>
<feColorMatrix type="matrix" values="0 0 0 0 0.82 0 0 0 0 0.369872 0 0 0 0 0.167489 0 0 0 0.51 0"/>
<feBlend mode="normal" in2="BackgroundImageFix" result="effect1_dropShadow_56_533"/>
<feBlend mode="normal" in="SourceGraphic" in2="effect1_dropShadow_56_533" result="shape"/>
<feColorMatrix in="SourceAlpha" type="matrix" values="0 0 0 0 0 0 0 0 0 0 0 0 0 0 0 0 0 0 127 0" result="hardAlpha"/>
<feOffset/>
<feGaussianBlur stdDeviation="55.4884"/>
<feComposite in2="hardAlpha" operator="arithmetic" k2="-1" k3="1"/>
<feColorMatrix type="matrix" values="0 0 0 0 1 0 0 0 0 1 0 0 0 0 1 0 0 0 1 0"/>
<feBlend mode="normal" in2="shape" result="effect2_innerShadow_56_533"/>
</filter>
<linearGradient id="paint0_linear_56_533" x1="512" y1="0" x2="512" y2="1024" gradientUnits="userSpaceOnUse">
<stop stop-color="#EB9838" style="stop-color:#EB9838;stop-color:color(display-p3 0.9216 0.5947 0.2212);stop-opacity:1;"/>
<stop offset="1" stop-color="#EB5C20" style="stop-color:#EB5C20;stop-color:color(display-p3 0.9216 0.3608 0.1255);stop-opacity:1;"/>
</linearGradient>
<linearGradient id="paint1_linear_56_533" x1="429.132" y1="137.284" x2="699.505" y2="958.261" gradientUnits="userSpaceOnUse">
<stop offset="0.25" stop-color="white" stop-opacity="0.9" style="stop-color:white;stop-opacity:0.9;"/>
<stop offset="0.953561" stop-color="white" stop-opacity="0.4" style="stop-color:white;stop-opacity:0.4;"/>
</linearGradient>
<linearGradient id="paint2_linear_56_533" x1="495.142" y1="69.3735" x2="602.209" y2="867.608" gradientUnits="userSpaceOnUse">
<stop offset="0.00651159" stop-color="white" style="stop-color:white;stop-opacity:1;"/>
<stop offset="0.56857" stop-color="white" stop-opacity="0" style="stop-color:none;stop-opacity:0;"/>
<stop offset="1" stop-color="white" style="stop-color:white;stop-opacity:1;"/>
</linearGradient>
<clipPath id="clip0_56_533">
<rect width="1024" height="1024" fill="white" style="fill:white;fill-opacity:1;"/>
</clipPath>
</defs>
</svg>
