<svg width="1024" height="1024" viewBox="0 0 1024 1024" fill="none" xmlns="http://www.w3.org/2000/svg">
  <defs>
    <linearGradient id="app-bg" x1="148" y1="72" x2="862" y2="956" gradientUnits="userSpaceOnUse">
      <stop stop-color="#79B8FF"/>
      <stop offset="0.42" stop-color="#438DF4"/>
      <stop offset="1" stop-color="#235DD9"/>
    </linearGradient>
    <radialGradient id="app-light" cx="0" cy="0" r="1" gradientUnits="userSpaceOnUse" gradientTransform="translate(250 112) rotate(53) scale(650 720)">
      <stop stop-color="#DDF0FF" stop-opacity="0.58"/>
      <stop offset="0.48" stop-color="#8DCAFF" stop-opacity="0.13"/>
      <stop offset="1" stop-color="#3D7FE8" stop-opacity="0"/>
    </radialGradient>
    <linearGradient id="app-rim" x1="188" y1="14" x2="818" y2="984" gradientUnits="userSpaceOnUse">
      <stop stop-color="white" stop-opacity="0.46"/>
      <stop offset="0.5" stop-color="white" stop-opacity="0.08"/>
      <stop offset="1" stop-color="#123FAD" stop-opacity="0.34"/>
    </linearGradient>
    <linearGradient id="mark-fill" x1="354" y1="208" x2="688" y2="798" gradientUnits="userSpaceOnUse">
      <stop stop-color="white"/>
      <stop offset="0.56" stop-color="#F7FBFF"/>
      <stop offset="1" stop-color="#D8E9FF"/>
    </linearGradient>
    <linearGradient id="mark-edge" x1="318" y1="238" x2="714" y2="778" gradientUnits="userSpaceOnUse">
      <stop stop-color="white" stop-opacity="0.88"/>
      <stop offset="0.52" stop-color="white" stop-opacity="0.34"/>
      <stop offset="1" stop-color="#B9D7FF" stop-opacity="0.7"/>
    </linearGradient>
    <filter id="mark-shadow" x="174" y="197" width="674" height="670" filterUnits="userSpaceOnUse" color-interpolation-filters="sRGB">
      <feDropShadow dx="0" dy="22" stdDeviation="26" flood-color="#114CB8" flood-opacity="0.28"/>
      <feDropShadow dx="0" dy="2" stdDeviation="3" flood-color="white" flood-opacity="0.28"/>
    </filter>
    <clipPath id="app-clip">
      <rect x="64" y="64" width="896" height="896" rx="200"/>
    </clipPath>
  </defs>

  <g clip-path="url(#app-clip)">
    <rect x="64" y="64" width="896" height="896" rx="200" fill="url(#app-bg)"/>
    <rect x="64" y="64" width="896" height="896" rx="200" fill="url(#app-light)"/>
    <ellipse cx="842" cy="922" rx="410" ry="302" fill="#1647B8" fill-opacity="0.12"/>
    <rect x="72" y="72" width="880" height="880" rx="192" stroke="url(#app-rim)" stroke-width="16"/>
  </g>

  <g filter="url(#mark-shadow)">
    <path d="M734.988 247.617C765.923 247.617 791 272.696 791 303.63V485.108C791 516.043 765.923 541.12 734.988 541.12H667.773C630.144 541.12 591.07 512.601 554.271 520.46C541.027 523.288 528.251 526.279 516.659 529.385C452.059 546.694 411.238 608.866 411.238 675.745V720.358C411.238 751.293 386.161 776.371 355.227 776.371H288.012C257.077 776.371 232 751.294 232 720.359V538.88C232 507.946 257.077 482.868 288.012 482.868H355.227C392.94 482.868 432.102 511.546 468.989 503.695C482.497 500.82 495.534 497.775 507.342 494.611C571.315 477.47 611.762 415.922 611.762 349.692V303.63C611.762 272.695 636.839 247.617 667.773 247.617H734.988ZM734.387 601.612C765.321 601.613 790.398 626.691 790.398 657.625V719.238C790.398 750.173 765.321 775.25 734.387 775.25H678.374C647.44 775.25 622.362 750.173 622.362 719.238V657.625C622.362 626.691 647.44 601.612 678.374 601.612H734.387ZM344.626 247.62C375.56 247.62 400.638 272.698 400.638 303.633V365.246C400.638 396.18 375.56 421.258 344.626 421.258H288.613C257.679 421.258 232.602 396.18 232.602 365.246V303.633C232.602 272.698 257.679 247.62 288.613 247.62H344.626Z" fill="url(#mark-fill)" stroke="url(#mark-edge)" stroke-width="8" stroke-linejoin="round"/>
  </g>
</svg>
